<svg width="1189" height="1200" viewBox="0 0 1189 1200" fill="none" xmlns="http://www.w3.org/2000/svg">
<g clip-path="url(#clip0_268_404)">
<g clip-path="url(#clip1_268_404)">
<path d="M605.41 429.358H583.594V0L605.41 9.62453e-07V429.358Z" fill="#52422D"/>
<path d="M605.41 1200H583.594V770.642H605.41V1200Z" fill="#52422D"/>
<path d="M763.578 611.009V588.991H1189V611.009H763.578Z" fill="#52422D"/>
<path d="M0 611.009L1.90727e-06 588.991H425.422V611.009H0Z" fill="#52422D"/>
<path d="M675.489 533.831L660.062 518.261L845.182 331.429L860.609 346.998L675.489 533.831Z" fill="#52422D"/>
<path d="M343.817 868.57L328.391 853.001L513.51 666.168L528.937 681.739L343.817 868.57Z" fill="#52422D"/>
<path d="M660.062 681.739L675.489 666.17L860.609 853.001L845.182 868.57L660.062 681.739Z" fill="#52422D"/>
<path d="M328.393 346.997L343.819 331.428L528.939 518.26L513.511 533.829L328.393 346.997Z" fill="#52422D"/>
<path d="M687.06 588.829L594.501 682.245L501.941 588.829L594.501 495.413L687.06 588.829ZM532.794 588.829L594.501 651.106L656.207 588.829L594.501 526.551L532.794 588.829Z" fill="#52422D"/>
</g>
</g>
<defs>
<clipPath id="clip0_268_404">
<rect width="1189" height="1200" fill="white"/>
</clipPath>
<clipPath id="clip1_268_404">
<rect width="1189" height="1200" fill="white"/>
</clipPath>
</defs>
</svg>
