<svg width="4380" height="4380" viewBox="0 0 4380 4380" fill="none" xmlns="http://www.w3.org/2000/svg">
<g opacity="0.1" clip-path="url(#clip0_302_388)">
<path d="M2230.18 1567.16H2149.82V0L2230.18 3.51295e-06V1567.16Z" fill="#52422D"/>
<path d="M2230.18 4380H2149.82V2812.84H2230.18V4380Z" fill="#52422D"/>
<path d="M2812.84 2230.18V2149.82H4380V2230.18H2812.84Z" fill="#52422D"/>
<path d="M0 2230.18L7.0259e-06 2149.82H1567.16V2230.18H0Z" fill="#52422D"/>
<path d="M2488.34 1948.48L2431.52 1891.65L3113.45 1209.72L3170.28 1266.55L2488.34 1948.48Z" fill="#52422D"/>
<path d="M1266.55 3170.28L1209.72 3113.45L1891.65 2431.52L1948.48 2488.35L1266.55 3170.28Z" fill="#52422D"/>
<path d="M2431.52 2488.35L2488.35 2431.52L3170.28 3113.46L3113.45 3170.29L2431.52 2488.35Z" fill="#52422D"/>
<path d="M1209.72 1266.54L1266.55 1209.71L1948.48 1891.65L1891.66 1948.48L1209.72 1266.54Z" fill="#52422D"/>
<path d="M2530.97 2188.19L2190 2529.15L1849.03 2188.19L2190 1847.22L2530.97 2188.19ZM1962.69 2188.19L2190 2415.5L2417.31 2188.19L2190 1960.87L1962.69 2188.19Z" fill="#52422D"/>
</g>
<defs>
<clipPath id="clip0_302_388">
<rect width="4380" height="4380" fill="white"/>
</clipPath>
</defs>
</svg>
