<svg width="1200" height="1200" viewBox="0 0 1200 1200" fill="#C8C0B4" xmlns="http://www.w3.org/2000/svg">
    <g transform="translate(5.5, 11.2)">
        <path d="M605.41 429.358H583.594V0L605.41 0V429.358Z" />
        <path d="M605.41 1200H583.594V770.642H605.41V1200Z" />
        <path d="M763.578 611.009V588.991H1189V611.009H763.578Z" />
        <path d="M0 611.009L0 588.991H425.422V611.009H0Z" />
        <path d="M675.489 533.831L660.062 518.262L845.182 331.429L860.609 346.998L675.489 533.831Z" />
        <path d="M343.817 868.57L328.391 853.001L513.51 666.168L528.937 681.739L343.817 868.57Z" />
        <path d="M660.062 681.739L675.489 666.169L860.609 853.001L845.182 868.57L660.062 681.739Z" />
        <path d="M328.391 346.997L343.817 331.428L528.937 518.26L513.509 533.829L328.391 346.997Z" />
        <path d="M687.06 588.829L594.501 682.245L501.941 588.829L594.501 495.413L687.06 588.829ZM532.794 588.829L594.501 651.106L656.207 588.829L594.501 526.551L532.794 588.829Z" />
    </g>
</svg>
