<svg width="934" height="208" viewBox="0 0 934 208" fill="none" xmlns="http://www.w3.org/2000/svg">
<path d="M166.133 17.3401L135.851 77.4238H195.901L166.133 17.3401ZM218.087 121.181L203.296 91.3102H128.627L113.836 121.181H94.3901L157.352 0H175.756L238.032 121.181H218.073H218.087Z" fill="#D2BB9C"/>
<path d="M331.291 58.3569C341.099 58.3569 352.621 58.0144 359.331 49.4371C361.058 47.382 363.8 43.2575 363.8 36.2215C363.8 33.9951 363.628 29.3568 360.701 24.376C355.547 15.285 347.452 14.4144 337.987 14.4144H271.227V58.3569H331.262H331.291ZM371.209 121.181L330.091 72.6H271.427V121.181H254.051V0H336.802C347.124 0 350.907 0.513791 356.076 1.88387C372.423 6.17965 381.703 18.8814 381.703 35.5222C381.703 42.0444 380.333 59.0419 362.086 66.5916C358.988 67.7905 355.719 68.818 348.837 69.8456L393.739 121.167H371.195L371.209 121.181Z" fill="#D2BB9C"/>
<path d="M526.573 121.181L471.692 55.9592L434.014 83.5892V121.181H417.324V0H434.357V64.5365L521.919 0H547.218L485.798 45.6551L549.616 121.181H526.573Z" fill="#D2BB9C"/>
<path d="M622.915 17.3401L592.634 77.4238H652.683L622.915 17.3401ZM674.87 121.181L660.079 91.3102H585.409L570.618 121.181H551.173L614.135 0H632.538L694.815 121.181H674.856H674.87Z" fill="#D2BB9C"/>
<path d="M822.139 121.181L726.996 20.9365C726.996 20.9365 727.338 112.261 727.338 121.181H710.82V0H728.538L822.995 100.073C822.995 100.073 822.481 6.17964 822.481 0H839V121.181H822.139Z" fill="#D2BB9C"/>
<path d="M103.684 170.082C103.492 169.17 103.066 168.486 102.406 168.03C101.758 167.574 100.984 167.346 100.084 167.346C99.3157 167.346 98.6557 167.49 98.1037 167.778C97.5637 168.066 97.1137 168.456 96.7537 168.948C96.4057 169.428 96.1477 169.98 95.9797 170.604C95.8117 171.228 95.7277 171.876 95.7277 172.548C95.7277 173.28 95.8117 173.976 95.9797 174.636C96.1477 175.284 96.4057 175.854 96.7537 176.346C97.1137 176.826 97.5697 177.21 98.1217 177.498C98.6737 177.786 99.3337 177.93 100.102 177.93C100.666 177.93 101.164 177.84 101.596 177.66C102.04 177.468 102.418 177.21 102.73 176.886C103.054 176.55 103.306 176.154 103.486 175.698C103.666 175.242 103.774 174.75 103.81 174.222H105.52C105.352 175.842 104.794 177.102 103.846 178.002C102.898 178.902 101.602 179.352 99.9577 179.352C98.9617 179.352 98.0917 179.184 97.3477 178.848C96.6037 178.5 95.9857 178.026 95.4937 177.426C95.0017 176.826 94.6297 176.118 94.3777 175.302C94.1377 174.486 94.0177 173.61 94.0177 172.674C94.0177 171.738 94.1497 170.862 94.4137 170.046C94.6777 169.218 95.0617 168.498 95.5657 167.886C96.0817 167.274 96.7177 166.794 97.4737 166.446C98.2417 166.086 99.1177 165.906 100.102 165.906C100.774 165.906 101.41 165.996 102.01 166.176C102.61 166.356 103.144 166.62 103.612 166.968C104.08 167.316 104.47 167.754 104.782 168.282C105.094 168.798 105.298 169.398 105.394 170.082H103.684ZM114.478 166.212H120.526C121.75 166.212 122.704 166.512 123.388 167.112C124.084 167.712 124.432 168.534 124.432 169.578C124.432 170.358 124.252 171.042 123.892 171.63C123.544 172.218 122.98 172.62 122.2 172.836V172.872C122.572 172.944 122.872 173.064 123.1 173.232C123.34 173.4 123.526 173.604 123.658 173.844C123.802 174.072 123.904 174.33 123.964 174.618C124.036 174.906 124.09 175.206 124.126 175.518C124.15 175.83 124.168 176.148 124.18 176.472C124.192 176.796 124.222 177.114 124.27 177.426C124.318 177.738 124.384 178.038 124.468 178.326C124.564 178.602 124.702 178.848 124.882 179.064H122.974C122.854 178.932 122.77 178.752 122.722 178.524C122.686 178.296 122.662 178.044 122.65 177.768C122.638 177.48 122.626 177.174 122.614 176.85C122.602 176.526 122.566 176.208 122.506 175.896C122.458 175.584 122.398 175.29 122.326 175.014C122.254 174.726 122.14 174.48 121.984 174.276C121.828 174.06 121.624 173.892 121.372 173.772C121.12 173.64 120.784 173.574 120.364 173.574H116.188V179.064H114.478V166.212ZM119.752 172.134C120.148 172.134 120.526 172.104 120.886 172.044C121.246 171.984 121.558 171.87 121.822 171.702C122.098 171.522 122.314 171.288 122.47 171C122.638 170.7 122.722 170.316 122.722 169.848C122.722 169.2 122.542 168.672 122.182 168.264C121.822 167.856 121.24 167.652 120.436 167.652H116.188V172.134H119.752ZM135.854 173.754H140.21L138.068 167.76H138.032L135.854 173.754ZM137.132 166.212H139.022L144.044 179.064H142.154L140.75 175.194H135.314L133.874 179.064H132.128L137.132 166.212ZM152.152 166.212H160.594V167.652H153.862V171.738H159.766V173.178H153.862V179.064H152.152V166.212ZM172.244 167.652H167.96V166.212H178.238V167.652H173.954V179.064H172.244V167.652ZM186.576 166.212H188.286V179.064H186.576V166.212ZM197.984 166.212H199.802L206.57 176.634H206.606V166.212H208.226V179.064H206.354L199.64 168.75H199.604V179.064H197.984V166.212ZM227.444 177.462C226.94 178.134 226.316 178.62 225.572 178.92C224.828 179.208 224.078 179.352 223.322 179.352C222.362 179.352 221.504 179.178 220.748 178.83C219.992 178.47 219.35 177.99 218.822 177.39C218.294 176.79 217.892 176.1 217.616 175.32C217.34 174.54 217.202 173.73 217.202 172.89C217.202 171.954 217.328 171.066 217.58 170.226C217.844 169.374 218.228 168.63 218.732 167.994C219.248 167.358 219.884 166.854 220.64 166.482C221.408 166.098 222.302 165.906 223.322 165.906C224.018 165.906 224.672 165.99 225.284 166.158C225.908 166.314 226.46 166.566 226.94 166.914C227.432 167.262 227.84 167.706 228.164 168.246C228.5 168.774 228.728 169.416 228.848 170.172H227.138C227.054 169.68 226.898 169.26 226.67 168.912C226.442 168.552 226.16 168.258 225.824 168.03C225.488 167.802 225.104 167.634 224.672 167.526C224.252 167.406 223.802 167.346 223.322 167.346C222.542 167.346 221.87 167.502 221.306 167.814C220.754 168.126 220.298 168.54 219.938 169.056C219.59 169.56 219.332 170.142 219.164 170.802C218.996 171.45 218.912 172.116 218.912 172.8C218.912 173.472 219.008 174.12 219.2 174.744C219.392 175.356 219.674 175.902 220.046 176.382C220.418 176.85 220.874 177.228 221.414 177.516C221.966 177.792 222.602 177.93 223.322 177.93C223.994 177.93 224.588 177.822 225.104 177.606C225.62 177.39 226.052 177.096 226.4 176.724C226.76 176.34 227.03 175.896 227.21 175.392C227.39 174.876 227.468 174.324 227.444 173.736H223.34V172.296H228.974V179.064H227.894L227.444 177.462ZM253.096 167.652H248.812V166.212H259.09V167.652H254.806V179.064H253.096V167.652ZM267.356 166.212H269.066V171.738H275.834V166.212H277.544V179.064H275.834V173.178H269.066V179.064H267.356V166.212ZM287.187 166.212H296.061V167.652H288.897V171.738H295.575V173.178H288.897V177.624H296.115V179.064H287.187V166.212ZM324.314 169.974C324.218 169.05 323.882 168.384 323.306 167.976C322.742 167.556 322.016 167.346 321.128 167.346C320.768 167.346 320.414 167.382 320.066 167.454C319.718 167.526 319.406 167.646 319.13 167.814C318.866 167.982 318.65 168.21 318.482 168.498C318.326 168.774 318.248 169.122 318.248 169.542C318.248 169.938 318.362 170.262 318.59 170.514C318.83 170.754 319.142 170.952 319.526 171.108C319.922 171.264 320.366 171.396 320.858 171.504C321.35 171.6 321.848 171.708 322.352 171.828C322.868 171.948 323.372 172.092 323.864 172.26C324.356 172.416 324.794 172.632 325.178 172.908C325.574 173.184 325.886 173.532 326.114 173.952C326.354 174.372 326.474 174.9 326.474 175.536C326.474 176.22 326.318 176.808 326.006 177.3C325.706 177.78 325.316 178.176 324.836 178.488C324.356 178.788 323.816 179.004 323.216 179.136C322.628 179.28 322.04 179.352 321.452 179.352C320.732 179.352 320.048 179.262 319.4 179.082C318.764 178.902 318.2 178.632 317.708 178.272C317.228 177.9 316.844 177.432 316.556 176.868C316.28 176.292 316.142 175.614 316.142 174.834H317.762C317.762 175.374 317.864 175.842 318.068 176.238C318.284 176.622 318.56 176.94 318.896 177.192C319.244 177.444 319.646 177.63 320.102 177.75C320.558 177.87 321.026 177.93 321.506 177.93C321.89 177.93 322.274 177.894 322.658 177.822C323.054 177.75 323.408 177.63 323.72 177.462C324.032 177.282 324.284 177.042 324.476 176.742C324.668 176.442 324.764 176.058 324.764 175.59C324.764 175.146 324.644 174.786 324.404 174.51C324.176 174.234 323.864 174.012 323.468 173.844C323.084 173.664 322.646 173.52 322.154 173.412C321.662 173.304 321.158 173.196 320.642 173.088C320.138 172.968 319.64 172.836 319.148 172.692C318.656 172.536 318.212 172.338 317.816 172.098C317.432 171.846 317.12 171.528 316.88 171.144C316.652 170.748 316.538 170.256 316.538 169.668C316.538 169.02 316.67 168.462 316.934 167.994C317.198 167.514 317.546 167.124 317.978 166.824C318.422 166.512 318.92 166.284 319.472 166.14C320.036 165.984 320.612 165.906 321.2 165.906C321.86 165.906 322.472 165.984 323.036 166.14C323.6 166.296 324.092 166.542 324.512 166.878C324.944 167.214 325.28 167.64 325.52 168.156C325.772 168.66 325.91 169.266 325.934 169.974H324.314ZM338.308 167.652H334.024V166.212H344.302V167.652H340.018V179.064H338.308V167.652ZM353.13 173.754H357.486L355.344 167.76H355.308L353.13 173.754ZM354.408 166.212H356.298L361.32 179.064H359.43L358.026 175.194H352.59L351.15 179.064H349.404L354.408 166.212ZM369.41 166.212H371.228L377.996 176.634H378.032V166.212H379.652V179.064H377.78L371.066 168.75H371.03V179.064H369.41V166.212ZM390.968 177.624H393.812C394.004 177.624 394.244 177.612 394.532 177.588C394.82 177.552 395.126 177.48 395.45 177.372C395.774 177.252 396.092 177.084 396.404 176.868C396.728 176.652 397.016 176.358 397.268 175.986C397.52 175.614 397.724 175.152 397.88 174.6C398.048 174.036 398.132 173.358 398.132 172.566C398.132 171.798 398.054 171.114 397.898 170.514C397.754 169.902 397.508 169.386 397.16 168.966C396.824 168.534 396.386 168.21 395.846 167.994C395.306 167.766 394.64 167.652 393.848 167.652H390.968V177.624ZM389.258 166.212H393.668C395.648 166.212 397.172 166.716 398.24 167.724C399.308 168.732 399.842 170.268 399.842 172.332C399.842 173.412 399.722 174.372 399.482 175.212C399.242 176.04 398.87 176.742 398.366 177.318C397.862 177.882 397.22 178.314 396.44 178.614C395.66 178.914 394.736 179.064 393.668 179.064H389.258V166.212ZM410.986 173.754H415.342L413.2 167.76H413.164L410.986 173.754ZM412.264 166.212H414.154L419.176 179.064H417.286L415.882 175.194H410.446L409.006 179.064H407.26L412.264 166.212ZM427.283 166.212H433.331C434.555 166.212 435.509 166.512 436.193 167.112C436.889 167.712 437.237 168.534 437.237 169.578C437.237 170.358 437.057 171.042 436.697 171.63C436.349 172.218 435.785 172.62 435.005 172.836V172.872C435.377 172.944 435.677 173.064 435.905 173.232C436.145 173.4 436.331 173.604 436.463 173.844C436.607 174.072 436.709 174.33 436.769 174.618C436.841 174.906 436.895 175.206 436.931 175.518C436.955 175.83 436.973 176.148 436.985 176.472C436.997 176.796 437.027 177.114 437.075 177.426C437.123 177.738 437.189 178.038 437.273 178.326C437.369 178.602 437.507 178.848 437.687 179.064H435.779C435.659 178.932 435.575 178.752 435.527 178.524C435.491 178.296 435.467 178.044 435.455 177.768C435.443 177.48 435.431 177.174 435.419 176.85C435.407 176.526 435.371 176.208 435.311 175.896C435.263 175.584 435.203 175.29 435.131 175.014C435.059 174.726 434.945 174.48 434.789 174.276C434.633 174.06 434.429 173.892 434.177 173.772C433.925 173.64 433.589 173.574 433.169 173.574H428.993V179.064H427.283V166.212ZM432.557 172.134C432.953 172.134 433.331 172.104 433.691 172.044C434.051 171.984 434.363 171.87 434.627 171.702C434.903 171.522 435.119 171.288 435.275 171C435.443 170.7 435.527 170.316 435.527 169.848C435.527 169.2 435.347 168.672 434.987 168.264C434.627 167.856 434.045 167.652 433.241 167.652H428.993V172.134H432.557ZM448.156 177.624H451C451.192 177.624 451.432 177.612 451.72 177.588C452.008 177.552 452.314 177.48 452.638 177.372C452.962 177.252 453.28 177.084 453.592 176.868C453.916 176.652 454.204 176.358 454.456 175.986C454.708 175.614 454.912 175.152 455.068 174.6C455.236 174.036 455.32 173.358 455.32 172.566C455.32 171.798 455.242 171.114 455.086 170.514C454.942 169.902 454.696 169.386 454.348 168.966C454.012 168.534 453.574 168.21 453.034 167.994C452.494 167.766 451.828 167.652 451.036 167.652H448.156V177.624ZM446.446 166.212H450.856C452.836 166.212 454.36 166.716 455.428 167.724C456.496 168.732 457.03 170.268 457.03 172.332C457.03 173.412 456.91 174.372 456.67 175.212C456.43 176.04 456.058 176.742 455.554 177.318C455.05 177.882 454.408 178.314 453.628 178.614C452.848 178.914 451.924 179.064 450.856 179.064H446.446V166.212ZM478.799 172.638C478.799 173.286 478.883 173.928 479.051 174.564C479.219 175.188 479.483 175.752 479.843 176.256C480.203 176.76 480.665 177.168 481.229 177.48C481.793 177.78 482.465 177.93 483.245 177.93C484.025 177.93 484.697 177.78 485.261 177.48C485.825 177.168 486.287 176.76 486.647 176.256C487.007 175.752 487.271 175.188 487.439 174.564C487.607 173.928 487.691 173.286 487.691 172.638C487.691 171.99 487.607 171.354 487.439 170.73C487.271 170.094 487.007 169.524 486.647 169.02C486.287 168.516 485.825 168.114 485.261 167.814C484.697 167.502 484.025 167.346 483.245 167.346C482.465 167.346 481.793 167.502 481.229 167.814C480.665 168.114 480.203 168.516 479.843 169.02C479.483 169.524 479.219 170.094 479.051 170.73C478.883 171.354 478.799 171.99 478.799 172.638ZM477.089 172.638C477.089 171.762 477.215 170.922 477.467 170.118C477.731 169.302 478.121 168.582 478.637 167.958C479.153 167.334 479.795 166.836 480.563 166.464C481.331 166.092 482.225 165.906 483.245 165.906C484.265 165.906 485.159 166.092 485.927 166.464C486.695 166.836 487.337 167.334 487.853 167.958C488.369 168.582 488.753 169.302 489.005 170.118C489.269 170.922 489.401 171.762 489.401 172.638C489.401 173.514 489.269 174.36 489.005 175.176C488.753 175.98 488.369 176.694 487.853 177.318C487.337 177.942 486.695 178.44 485.927 178.812C485.159 179.172 484.265 179.352 483.245 179.352C482.225 179.352 481.331 179.172 480.563 178.812C479.795 178.44 479.153 177.942 478.637 177.318C478.121 176.694 477.731 175.98 477.467 175.176C477.215 174.36 477.089 173.514 477.089 172.638ZM498.325 166.212H506.767V167.652H500.035V171.738H505.939V173.178H500.035V179.064H498.325V166.212ZM527.351 166.212H533.399C534.623 166.212 535.577 166.512 536.261 167.112C536.957 167.712 537.305 168.534 537.305 169.578C537.305 170.358 537.125 171.042 536.765 171.63C536.417 172.218 535.853 172.62 535.073 172.836V172.872C535.445 172.944 535.745 173.064 535.973 173.232C536.213 173.4 536.399 173.604 536.531 173.844C536.675 174.072 536.777 174.33 536.837 174.618C536.909 174.906 536.963 175.206 536.999 175.518C537.023 175.83 537.041 176.148 537.053 176.472C537.065 176.796 537.095 177.114 537.143 177.426C537.191 177.738 537.257 178.038 537.341 178.326C537.437 178.602 537.575 178.848 537.755 179.064H535.847C535.727 178.932 535.643 178.752 535.595 178.524C535.559 178.296 535.535 178.044 535.523 177.768C535.511 177.48 535.499 177.174 535.487 176.85C535.475 176.526 535.439 176.208 535.379 175.896C535.331 175.584 535.271 175.29 535.199 175.014C535.127 174.726 535.013 174.48 534.857 174.276C534.701 174.06 534.497 173.892 534.245 173.772C533.993 173.64 533.657 173.574 533.237 173.574H529.061V179.064H527.351V166.212ZM532.625 172.134C533.021 172.134 533.399 172.104 533.759 172.044C534.119 171.984 534.431 171.87 534.695 171.702C534.971 171.522 535.187 171.288 535.343 171C535.511 170.7 535.595 170.316 535.595 169.848C535.595 169.2 535.415 168.672 535.055 168.264C534.695 167.856 534.113 167.652 533.309 167.652H529.061V172.134H532.625ZM546.513 166.212H555.387V167.652H548.223V171.738H554.901V173.178H548.223V177.624H555.441V179.064H546.513V166.212ZM564.357 166.212H572.799V167.652H566.067V171.738H571.971V173.178H566.067V179.064H564.357V166.212ZM581.605 166.212H583.315V179.064H581.605V166.212ZM593.013 166.212H594.831L601.599 176.634H601.635V166.212H603.255V179.064H601.383L594.669 168.75H594.633V179.064H593.013V166.212ZM612.861 166.212H621.735V167.652H614.571V171.738H621.249V173.178H614.571V177.624H621.789V179.064H612.861V166.212ZM632.415 177.624H635.259C635.451 177.624 635.691 177.612 635.979 177.588C636.267 177.552 636.573 177.48 636.897 177.372C637.221 177.252 637.539 177.084 637.851 176.868C638.175 176.652 638.463 176.358 638.715 175.986C638.967 175.614 639.171 175.152 639.327 174.6C639.495 174.036 639.579 173.358 639.579 172.566C639.579 171.798 639.501 171.114 639.345 170.514C639.201 169.902 638.955 169.386 638.607 168.966C638.271 168.534 637.833 168.21 637.293 167.994C636.753 167.766 636.087 167.652 635.295 167.652H632.415V177.624ZM630.705 166.212H635.115C637.095 166.212 638.619 166.716 639.687 167.724C640.755 168.732 641.289 170.268 641.289 172.332C641.289 173.412 641.169 174.372 640.929 175.212C640.689 176.04 640.317 176.742 639.813 177.318C639.309 177.882 638.667 178.314 637.887 178.614C637.107 178.914 636.183 179.064 635.115 179.064H630.705V166.212ZM662.069 166.212H663.779V171.738H670.547V166.212H672.257V179.064H670.547V173.178H663.779V179.064H662.069V166.212ZM682.889 172.638C682.889 173.286 682.973 173.928 683.141 174.564C683.309 175.188 683.573 175.752 683.933 176.256C684.293 176.76 684.755 177.168 685.319 177.48C685.883 177.78 686.555 177.93 687.335 177.93C688.115 177.93 688.787 177.78 689.351 177.48C689.915 177.168 690.377 176.76 690.737 176.256C691.097 175.752 691.361 175.188 691.529 174.564C691.697 173.928 691.781 173.286 691.781 172.638C691.781 171.99 691.697 171.354 691.529 170.73C691.361 170.094 691.097 169.524 690.737 169.02C690.377 168.516 689.915 168.114 689.351 167.814C688.787 167.502 688.115 167.346 687.335 167.346C686.555 167.346 685.883 167.502 685.319 167.814C684.755 168.114 684.293 168.516 683.933 169.02C683.573 169.524 683.309 170.094 683.141 170.73C682.973 171.354 682.889 171.99 682.889 172.638ZM681.179 172.638C681.179 171.762 681.305 170.922 681.557 170.118C681.821 169.302 682.211 168.582 682.727 167.958C683.243 167.334 683.885 166.836 684.653 166.464C685.421 166.092 686.315 165.906 687.335 165.906C688.355 165.906 689.249 166.092 690.017 166.464C690.785 166.836 691.427 167.334 691.943 167.958C692.459 168.582 692.843 169.302 693.095 170.118C693.359 170.922 693.491 171.762 693.491 172.638C693.491 173.514 693.359 174.36 693.095 175.176C692.843 175.98 692.459 176.694 691.943 177.318C691.427 177.942 690.785 178.44 690.017 178.812C689.249 179.172 688.355 179.352 687.335 179.352C686.315 179.352 685.421 179.172 684.653 178.812C683.885 178.44 683.243 177.942 682.727 177.318C682.211 176.694 681.821 175.98 681.557 175.176C681.305 174.36 681.179 173.514 681.179 172.638ZM709.849 169.974C709.753 169.05 709.417 168.384 708.841 167.976C708.277 167.556 707.551 167.346 706.663 167.346C706.303 167.346 705.949 167.382 705.601 167.454C705.253 167.526 704.941 167.646 704.665 167.814C704.401 167.982 704.185 168.21 704.017 168.498C703.861 168.774 703.783 169.122 703.783 169.542C703.783 169.938 703.897 170.262 704.125 170.514C704.365 170.754 704.677 170.952 705.061 171.108C705.457 171.264 705.901 171.396 706.393 171.504C706.885 171.6 707.383 171.708 707.887 171.828C708.403 171.948 708.907 172.092 709.399 172.26C709.891 172.416 710.329 172.632 710.713 172.908C711.109 173.184 711.421 173.532 711.649 173.952C711.889 174.372 712.009 174.9 712.009 175.536C712.009 176.22 711.853 176.808 711.541 177.3C711.241 177.78 710.851 178.176 710.371 178.488C709.891 178.788 709.351 179.004 708.751 179.136C708.163 179.28 707.575 179.352 706.987 179.352C706.267 179.352 705.583 179.262 704.935 179.082C704.299 178.902 703.735 178.632 703.243 178.272C702.763 177.9 702.379 177.432 702.091 176.868C701.815 176.292 701.677 175.614 701.677 174.834H703.297C703.297 175.374 703.399 175.842 703.603 176.238C703.819 176.622 704.095 176.94 704.431 177.192C704.779 177.444 705.181 177.63 705.637 177.75C706.093 177.87 706.561 177.93 707.041 177.93C707.425 177.93 707.809 177.894 708.193 177.822C708.589 177.75 708.943 177.63 709.255 177.462C709.567 177.282 709.819 177.042 710.011 176.742C710.203 176.442 710.299 176.058 710.299 175.59C710.299 175.146 710.179 174.786 709.939 174.51C709.711 174.234 709.399 174.012 709.003 173.844C708.619 173.664 708.181 173.52 707.689 173.412C707.197 173.304 706.693 173.196 706.177 173.088C705.673 172.968 705.175 172.836 704.683 172.692C704.191 172.536 703.747 172.338 703.351 172.098C702.967 171.846 702.655 171.528 702.415 171.144C702.187 170.748 702.073 170.256 702.073 169.668C702.073 169.02 702.205 168.462 702.469 167.994C702.733 167.514 703.081 167.124 703.513 166.824C703.957 166.512 704.455 166.284 705.007 166.14C705.571 165.984 706.147 165.906 706.735 165.906C707.395 165.906 708.007 165.984 708.571 166.14C709.135 166.296 709.627 166.542 710.047 166.878C710.479 167.214 710.815 167.64 711.055 168.156C711.307 168.66 711.445 169.266 711.469 169.974H709.849ZM722.637 172.368H725.985C726.957 172.38 727.665 172.182 728.109 171.774C728.565 171.366 728.793 170.778 728.793 170.01C728.793 169.242 728.565 168.66 728.109 168.264C727.665 167.856 726.957 167.652 725.985 167.652H722.637V172.368ZM720.927 166.212H726.561C727.857 166.212 728.835 166.548 729.495 167.22C730.167 167.88 730.503 168.81 730.503 170.01C730.503 171.21 730.167 172.146 729.495 172.818C728.835 173.49 727.857 173.82 726.561 173.808H722.637V179.064H720.927V166.212ZM739.511 166.212H741.221V179.064H739.511V166.212ZM753.853 167.652H749.569V166.212H759.847V167.652H755.563V179.064H753.853V167.652ZM768.674 173.754H773.03L770.888 167.76H770.852L768.674 173.754ZM769.952 166.212H771.842L776.864 179.064H774.974L773.57 175.194H768.134L766.694 179.064H764.948L769.952 166.212ZM784.972 166.212H786.682V177.624H793.486V179.064H784.972V166.212ZM801.886 166.212H803.596V179.064H801.886V166.212ZM816.229 167.652H811.945V166.212H822.223V167.652H817.939V179.064H816.229V167.652ZM835.798 173.808V179.064H834.088V173.808L829.12 166.212H831.154L835.006 172.332L838.768 166.212H840.712L835.798 173.808Z" fill="white"/>
</svg>
