<svg width="169" height="178" viewBox="0 0 169 178" fill="none" xmlns="http://www.w3.org/2000/svg">
<path d="M163.702 36.5565C163.702 37.5755 163.4 38.3864 162.848 39.2182C155 50.8111 145.288 60.678 134.765 69.8172C122.066 80.8486 108.982 91.4018 95.9811 102.069C94.3781 103.379 94.3989 103.369 92.9209 101.893C91.0576 100.042 89.2049 98.1703 87.2584 96.4236C86.1967 95.4774 86.1654 94.8744 87.3 93.9699C93.3684 89.104 99.3848 84.1757 105.432 79.289C114.977 71.5743 124.595 63.9532 133.537 55.5314C140.844 48.6485 147.11 41.0065 150.732 31.4619C152.606 26.5232 152.772 21.4182 152.606 16.2508C152.585 15.7725 152.523 15.2631 151.929 15.2423C150.774 15.1903 149.598 15.1383 148.453 15.2423C147.537 15.3255 147.693 16.178 147.651 16.8019C147.308 22.3956 146.059 27.7813 143.883 32.9383C142.187 36.9412 140.115 40.7466 136.92 44.4376C137.003 42.7533 137.128 41.516 137.128 40.2683C137.149 29.3097 137.149 18.3614 137.159 7.4028C137.159 5.32336 137.159 5.32336 139.251 5.32336C146.777 5.32336 154.313 5.35456 161.839 5.29217C163.306 5.28178 163.733 5.72886 163.723 7.18446C163.671 16.9786 163.681 26.7728 163.712 36.5669M144.393 67.7689C151.232 61.1875 158.05 54.5749 163.639 46.7354V95.1447C163.025 94.1466 162.63 93.4812 162.213 92.8366C157.04 84.7891 151.159 77.2928 144.404 70.5034C143.342 69.4429 143.248 68.8814 144.404 67.7689M162.026 172.448C154.292 172.396 146.558 172.406 138.824 172.448C137.513 172.448 137.055 172.053 137.055 170.712C137.086 146.226 137.086 121.73 137.097 97.245C137.097 96.8499 137.138 96.4652 137.18 95.675C142.707 103.608 146.569 111.78 147.287 121.086C148.245 133.573 147.859 146.101 147.932 158.62C147.953 162.3 147.339 161.874 151.388 161.947C152.606 161.968 152.939 161.468 152.939 160.325C152.908 148.202 153.147 136.079 152.824 123.976C152.543 113.34 148.984 103.618 142.978 94.812C139.647 89.9254 136.014 85.2674 132.059 80.8694C131.174 79.8817 131.215 79.2786 132.267 78.4468C134.359 76.7833 136.368 75.0054 138.377 73.2482C138.981 72.718 139.428 72.6348 140.032 73.269C149.473 83.0112 157.935 93.4396 163.369 106.02C163.639 106.644 163.681 107.278 163.681 107.944C163.681 128.842 163.671 149.751 163.702 170.66C163.702 171.928 163.41 172.448 162.016 172.448M85.6762 154.669C85.3223 154.908 84.8955 154.887 84.5104 154.721C83.9796 154.492 84.0732 153.972 84.0732 153.535C84.0732 149.345 84.094 145.155 84.0524 140.976C84.0108 137.004 84.2502 133.063 84.8019 128.738C85.7074 131.254 85.9573 133.5 85.9989 135.725C86.103 141.579 86.0405 147.432 86.0301 153.286C86.0301 153.775 86.1654 154.336 85.6658 154.679M101.29 133.126C101.144 145.54 101.248 157.965 101.248 170.379C101.248 172.458 101.248 172.469 99.1246 172.469C89.6212 172.469 80.1178 172.469 70.6144 172.469C68.6055 172.469 68.5951 172.448 68.5951 170.431C68.5951 157.809 68.5535 145.186 68.6159 132.564C68.6471 126.222 69.9899 120.15 72.894 114.463C73.7267 112.82 73.7475 112.83 75.0278 114.088C76.9327 115.97 78.6606 118.008 80.3781 120.067C81.0442 120.867 81.2316 121.637 80.9089 122.697C79.3372 127.854 78.9624 133.209 78.8583 138.553C78.723 145.415 78.8479 152.288 78.7855 159.15C78.7751 160.585 79.2018 161.115 80.6799 161.063C83.7089 160.969 86.7483 160.99 89.7773 161.063C90.8807 161.094 91.3075 160.793 91.3075 159.639C91.2762 151.757 91.5365 143.876 91.2242 136.016C90.9119 127.948 87.7788 120.899 82.3766 114.785C75.3089 106.779 66.8256 100.406 58.6233 93.6891C50.1504 86.7438 41.4693 80.0376 33.621 72.3749C29.8946 68.7359 26.5116 64.7849 23.6284 60.4285C23.3785 60.0438 23.2745 59.316 22.6395 59.472C22.1711 59.5863 22.2648 60.2518 22.1503 60.6676C17.0291 79.7777 11.1584 98.659 5.81861 117.707C5.77698 117.852 5.71452 117.987 5.49593 118.58C5.49593 106.748 5.46471 95.3423 5.52716 83.9262C5.53757 81.7428 6.53683 79.7257 7.17178 77.6567C11.7413 62.7471 15.832 47.7127 18.8506 32.3977C18.9235 32.013 19.0484 31.6387 19.2358 30.9421C20.5889 35.6624 22.0566 40.0084 24.1904 44.0945C28.1354 51.6533 33.444 58.1203 39.7623 63.8388C51.3787 74.3607 64.036 83.5935 76.2561 93.3668C83.2926 98.9917 89.9335 105.064 95.0131 112.602C99.1766 118.778 101.363 125.557 101.279 133.105M31.1228 97.5985C32.1117 97.5881 32.476 97.8688 32.4448 98.8669C32.3927 101.082 32.3823 103.307 32.4656 105.521C32.4968 106.509 32.0908 106.717 31.2269 106.706C28.6559 106.675 26.0849 106.696 23.5034 106.696C21.0365 106.696 18.5592 106.654 16.0923 106.696C15.0097 106.717 14.6246 106.436 14.9889 105.313C15.6863 103.109 16.3213 100.874 16.925 98.6382C17.1228 97.8896 17.435 97.5777 18.2677 97.5881C22.5562 97.6401 26.8447 97.6401 31.1332 97.5881M32.6946 90.4764C32.7154 91.8072 32.2574 92.2855 30.9459 92.2231C29.2284 92.14 27.5109 92.2023 25.7934 92.2023C23.9198 92.2023 22.0566 92.1712 20.183 92.2127C19.1109 92.2335 18.861 91.8176 19.1629 90.8299C21.0157 84.6956 22.8477 78.5612 24.6797 72.4269C24.9191 71.6263 25.2001 71.2728 25.9808 72.0422C27.8856 73.9137 29.8633 75.7228 31.7994 77.5735C32.1637 77.9166 32.5384 78.2493 32.4864 78.8419C32.1429 82.7305 32.6425 86.6086 32.6946 90.4868M32.6737 142.171H32.6425C32.6425 151.56 32.6425 160.949 32.6425 170.337C32.6425 172.386 32.6425 172.396 30.644 172.396C22.8581 172.417 15.0826 172.396 7.29669 172.469C5.91229 172.479 5.46471 172.053 5.47512 170.66C5.52716 160.865 5.49593 151.071 5.50634 141.277C5.50634 139.187 6.23497 137.212 6.70338 135.205C8.43126 127.886 10.4922 120.659 12.5844 113.444C12.9071 112.331 13.4588 111.926 14.6246 111.936C20.0789 111.988 25.5436 111.999 30.9979 111.936C32.3719 111.915 32.705 112.414 32.6946 113.704C32.6529 123.196 32.6737 132.679 32.6737 142.171ZM5.50634 59.472C5.50634 42.1502 5.50634 24.8389 5.50634 7.51717C5.50634 6.05463 6.21415 5.3199 7.62977 5.31297C15.4157 5.31297 23.2016 5.33376 30.9771 5.29217C32.1533 5.29217 32.705 5.5521 32.6946 6.88294C32.6425 20.1602 32.6425 33.4374 32.6321 46.7146C32.6321 46.9641 32.6009 47.2033 32.5488 47.9207C30.8418 45.5813 29.6239 43.4291 28.5414 41.2249C24.7317 33.4894 22.5666 25.2756 21.6402 16.7395C21.5049 15.4814 21.0469 15.0967 19.8603 15.1487C16.5919 15.2735 16.7376 14.5665 16.2276 17.9768C13.8752 33.5102 10.3569 48.7836 5.9227 63.8596C5.84984 64.0883 5.75616 64.3171 5.51675 64.525V59.4616L5.50634 59.472ZM44.998 60.075C54.1058 53.1193 63.4323 46.4443 72.6442 39.6237C73.4145 39.0519 73.8933 39.0935 74.4866 39.8732C76.0375 41.9423 77.8799 43.7514 79.816 45.4461C80.8048 46.3091 80.8569 46.7458 79.7535 47.5568C72.9252 52.5058 66.1386 57.5173 59.3415 62.4975C57.2701 64.0259 55.1883 65.5335 53.1066 67.0515C52.7839 67.2803 52.43 67.4778 52.0657 67.7169C51.743 67.509 51.4203 67.353 51.1601 67.1243C49.0575 65.3048 46.9861 63.4645 44.8731 61.6554C44.1028 61.0004 44.2693 60.626 45.0084 60.0542M109.773 69.3389C109.586 69.4845 109.273 69.7236 108.961 69.9731C101.29 76.2218 93.6183 82.4706 85.9468 88.7193C84.9684 89.5199 83.9587 90.2789 83.0323 91.1314C82.439 91.6825 82.0435 91.7241 81.3877 91.1626C74.3304 85.1946 66.8152 79.7985 59.5913 74.0384C58.6858 73.3106 57.8218 72.51 56.8538 71.8862C55.7504 71.1792 56.2605 70.8153 56.9787 70.2954C61.7876 66.7812 66.5966 63.2669 71.3951 59.7215C75.4962 56.6855 79.5766 53.6287 83.6465 50.5512C84.3231 50.0313 84.8435 49.8234 85.6346 50.4264C93.4205 56.3632 101.238 62.2688 109.044 68.1848C109.357 68.424 109.763 68.5903 109.783 69.3181M69.7401 14.005C69.5527 11.5929 69.7193 9.15993 69.2717 6.76858C69.0531 5.58329 69.636 5.29217 70.7185 5.30257C75.5171 5.33376 80.3156 5.31297 85.1141 5.31297C89.9127 5.31297 94.5134 5.35456 99.2079 5.28178C100.53 5.26098 100.905 5.68727 100.957 7.00771C101.258 15.1487 99.7491 22.8634 95.8146 30.0479C94.9194 31.6907 94.8881 31.7322 93.4933 30.4326C91.5885 28.6859 90.0063 26.648 88.5699 24.5062C88.0807 23.768 87.9766 23.0714 88.3409 22.2396C89.1424 20.3785 89.5067 18.3822 89.8398 16.3964C90.0376 15.1903 89.5692 14.7952 88.3617 14.8368C86.1967 14.9096 84.0212 14.8368 81.8457 14.8576C80.0346 14.868 79.7431 15.2111 80.1178 17.0514C81.0755 21.7405 83.2301 25.8786 86.0926 29.6632C89.4651 34.1132 93.8993 37.3779 98.3127 40.6634C105.932 46.3299 113.551 51.986 121.202 57.6005C122.233 58.3595 122.43 58.7857 121.296 59.6695C119.141 61.3331 117.09 63.1318 115.05 64.9409C114.395 65.5231 113.937 65.5959 113.239 65.0449C104.09 57.746 94.2428 51.3414 85.3223 43.7306C76.152 35.9119 70.6769 26.1697 69.7505 13.9946M169 2.18341C169 0.0207944 169 0.0207944 166.825 0.0207944C155.801 0.0207944 144.789 0.0207944 133.766 0.0207944C132.295 0.0207944 131.559 0.786721 131.559 2.31857C131.559 16.5107 131.413 30.6925 131.673 44.8847C131.746 48.8668 130.882 51.8924 127.614 54.2318C126.781 54.8244 126.354 55.022 125.459 54.3565C117.08 48.1078 108.659 41.9007 100.218 35.7352C99.3015 35.0697 99.2807 34.5707 99.822 33.6453C103.038 28.1452 105.412 22.3124 106.036 15.9181C106.525 10.9898 106.161 6.03037 106.203 1.09171C106.213 -0.0727804 105.339 0.0415888 104.589 0.0415888C91.5885 0.0207944 78.5981 0.0311916 65.6077 0C64.3482 0 63.9215 0.457477 63.9423 1.68435C63.9943 4.8139 63.8486 7.95385 63.9839 11.073C64.317 18.9749 65.8575 26.596 69.9274 33.5206C70.6353 34.7162 70.4479 35.2985 69.3549 36.0783C60.1534 42.6701 50.9935 49.3035 41.8232 55.9369C40.0641 57.2158 39.3355 57.0806 38.2009 55.2403C37.795 54.5853 37.9303 53.8679 37.9303 53.1713C37.9303 36.1511 37.9303 19.1412 37.9303 2.12103C37.9303 0.0207944 37.9303 0.0207944 35.8381 0.0207944C24.5756 0.0207944 13.3027 0.0207944 2.02975 0.0207944C0.0416359 0.0207944 0 0.0415888 0 2.05864C0 60.023 0 117.987 0 175.952C0 177.969 0.031227 178 2.01934 178C13.2923 178 24.5652 178 35.8381 178C36.192 178 36.5459 177.979 36.8998 177.99C37.5764 177.99 37.9303 177.678 37.9407 176.991C37.9407 176.388 37.9615 175.775 37.9615 175.172C37.9615 145.436 37.9615 115.69 37.9615 85.9536C37.9615 85.4026 37.9615 84.8411 37.9615 84.2901C37.9719 83.9989 37.8678 83.6246 38.2009 83.4791C38.534 83.3335 38.7318 83.6558 38.9608 83.843C40.6158 85.2466 42.25 86.671 43.9363 88.0539C52.1281 94.7912 60.3096 101.539 68.5326 108.235C69.7193 109.202 69.9274 109.909 69.0323 111.312C65.514 116.854 63.7341 123.03 63.6404 129.528C63.4114 144.968 63.4531 160.418 63.3802 175.858C63.3802 178 63.3802 178 65.6077 178C78.442 178 91.2866 178 104.121 178C106.432 178 106.453 178 106.453 175.661C106.473 161.874 106.307 148.087 106.546 134.311C106.713 124.725 103.829 116.241 98.4897 108.474C97.709 107.341 97.9484 106.81 98.8852 106.041C107.337 99.1477 115.769 92.2231 124.2 85.309C126.989 83.0112 126.948 83.0632 129.436 85.7145C130.924 87.3053 131.58 88.9896 131.58 91.2458C131.496 119.422 131.528 147.588 131.528 175.765C131.528 177.99 131.528 178 133.797 178C144.768 178 155.739 178 166.7 178C167.106 178 167.512 177.979 167.917 177.99C168.594 177.99 168.958 177.678 168.958 176.991C168.958 176.43 168.979 175.879 168.979 175.328C168.979 146.548 168.979 117.769 168.979 88.9896C168.979 60.2102 168.979 31.1292 168.979 2.19381" fill="#D2BB9C"/>
</svg>
