<svg width="676" height="110" viewBox="0 0 676 110" fill="none" xmlns="http://www.w3.org/2000/svg">
<path d="M65.1232 15.7402L37.6354 70.2803H92.1445L65.1232 15.7402ZM112.284 110L98.8577 82.8854H31.0777L17.6513 110H0L57.1529 0H73.8582L130.389 110H112.271H112.284Z" fill="white"/>
<path d="M215.043 52.9726C223.946 52.9726 234.405 52.6617 240.496 44.8758C242.064 43.0103 244.552 39.2663 244.552 32.8795C244.552 30.8586 244.397 26.6482 241.74 22.127C237.062 13.8747 229.713 13.0844 221.121 13.0844H160.521V52.9726H215.043ZM251.279 110L213.954 65.9015H160.702V110H144.93V0H220.045C229.415 0 232.85 0.466386 237.541 1.71006C252.38 5.60948 260.804 17.1393 260.804 32.2447C260.804 38.1651 259.56 53.5944 242.997 60.4475C240.185 61.5357 237.217 62.4685 230.97 63.4012L271.729 109.987H251.266L251.279 110Z" fill="white"/>
<path d="M392.308 110L342.49 50.7961L308.289 75.8768V110H293.139V0H308.6V58.582L388.083 0H411.048L355.294 41.4427L413.225 110H392.308Z" fill="white"/>
<path d="M479.761 15.7402L452.273 70.2803H506.782L479.761 15.7402ZM526.922 110L513.495 82.8854H445.715L432.289 110H414.637L471.79 0H488.496L545.026 110H526.909H526.922Z" fill="white"/>
<path d="M660.602 110L574.238 19.0048C574.238 19.0048 574.549 101.903 574.549 110H559.554V0H575.638L661.38 90.8397C661.38 90.8397 660.913 5.60947 660.913 0H675.908V110H660.602Z" fill="white"/>
</svg>
