<svg width="108" height="109" viewBox="0 0 108 109" fill="none" xmlns="http://www.w3.org/2000/svg">
<g clip-path="url(#clip0_128_844)">
<g clip-path="url(#clip1_128_844)">
<path d="M54.9408 38.9644H52.9609V0.000488281L54.9408 0.000488369V38.9644Z" fill="#B99668"/>
<path d="M54.9408 108.9H52.9609V69.9357H54.9408V108.9Z" fill="#B99668"/>
<path d="M69.293 55.4491V53.4509H107.899V55.4491H69.293Z" fill="#B99668"/>
<path d="M0 55.4491L1.73082e-07 53.4509H38.6064V55.4491H0Z" fill="#B99668"/>
<path d="M61.3003 48.4452L59.9004 47.0323L76.6997 30.0774L78.0997 31.4903L61.3003 48.4452Z" fill="#B99668"/>
<path d="M31.2007 78.8225L29.8008 77.4096L46.6001 60.4547L48 61.8677L31.2007 78.8225Z" fill="#B99668"/>
<path d="M59.9004 61.8677L61.3003 60.4548L78.0997 77.4096L76.6997 78.8225L59.9004 61.8677Z" fill="#B99668"/>
<path d="M29.8008 31.4902L31.2007 30.0773L48 47.0322L46.6 48.445L29.8008 31.4902Z" fill="#B99668"/>
<path d="M62.35 53.4363L53.9504 61.9137L45.5508 53.4363L53.9504 44.9589L62.35 53.4363ZM48.3506 53.4363L53.9504 59.0879L59.5502 53.4363L53.9504 47.7846L48.3506 53.4363Z" fill="#B99668"/>
</g>
</g>
<defs>
<clipPath id="clip0_128_844">
<rect width="107.9" height="108.899" fill="white" transform="translate(0 0.000488281)"/>
</clipPath>
<clipPath id="clip1_128_844">
<rect width="107.9" height="108.899" fill="white" transform="translate(0 0.000488281)"/>
</clipPath>
</defs>
</svg>
