<svg width="1313" height="1326" viewBox="0 0 1313 1326" fill="none" xmlns="http://www.w3.org/2000/svg">
<g clip-path="url(#clip0_183_417)">
<g clip-path="url(#clip1_183_417)">
<path d="M668.549 474.139H644.457V0L668.549 1.06283e-06V474.139Z" fill="#52422D"/>
<path d="M668.549 1325.16H644.457V851.019H668.549V1325.16Z" fill="#52422D"/>
<path d="M843.211 674.736V650.421H1313V674.736H843.211Z" fill="#52422D"/>
<path d="M0 674.736L2.10617e-06 650.421H469.789V674.736H0Z" fill="#52422D"/>
<path d="M745.938 589.508L728.902 572.315L933.328 365.996L950.363 383.189L745.938 589.508Z" fill="#52422D"/>
<path d="M379.672 959.16L362.637 941.967L567.062 735.648L584.098 752.843L379.672 959.16Z" fill="#52422D"/>
<path d="M728.898 752.842L745.934 735.649L950.359 941.967L933.324 959.16L728.898 752.842Z" fill="#52422D"/>
<path d="M362.641 383.188L379.676 365.995L584.102 572.314L567.065 589.507L362.641 383.188Z" fill="#52422D"/>
<path d="M758.713 650.243L656.502 753.402L554.289 650.243L656.502 547.083L758.713 650.243ZM588.36 650.243L656.502 719.015L724.643 650.243L656.502 581.47L588.36 650.243Z" fill="#52422D"/>
</g>
</g>
<defs>
<clipPath id="clip0_183_417">
<rect width="1313" height="1325.16" fill="white"/>
</clipPath>
<clipPath id="clip1_183_417">
<rect width="1313" height="1325.16" fill="white"/>
</clipPath>
</defs>
</svg>
