<?xml version="1.0" encoding="UTF-8"?><svg id="Layer_2" xmlns="http://www.w3.org/2000/svg" viewBox="0 0 52.07 52.07"><defs><style>.cls-1{fill:#91887b;}</style></defs><g id="Layer_1-2"><path class="cls-1" d="M26.04,40.87c-8.18,0-14.83-6.65-14.83-14.83s6.65-14.83,14.83-14.83c4.88,0,9.46,2.41,12.23,6.44.31.46.2,1.08-.26,1.39-.45.31-1.08.2-1.39-.26-2.4-3.49-6.35-5.57-10.58-5.57-7.08,0-12.83,5.76-12.83,12.83s5.76,12.83,12.83,12.83,12.83-5.76,12.83-12.83c0-.82-.08-1.63-.23-2.43-.1-.54.25-1.07.79-1.17.54-.11,1.07.25,1.17.79.18.92.26,1.86.26,2.8,0,8.18-6.65,14.83-14.83,14.83Z"/><path class="cls-1" d="M26.04,52.07c-2.24,0-3.98-1.76-5.52-3.31-1.01-1.02-1.96-1.97-2.91-2.37-1.02-.42-2.48-.43-3.9-.43-2.25,0-4.57-.01-6.08-1.52-1.51-1.51-1.52-3.83-1.53-6.08,0-1.42,0-2.88-.43-3.9-.39-.95-1.35-1.9-2.37-2.91-1.55-1.54-3.3-3.29-3.3-5.52s1.76-3.98,3.3-5.52c1.01-1.01,1.97-1.96,2.37-2.91.42-1.02.43-2.48.43-3.9,0-2.25.01-4.57,1.53-6.08,1.51-1.51,3.83-1.52,6.08-1.52,1.42,0,2.88,0,3.9-.43.95-.39,1.9-1.35,2.91-2.37,1.54-1.55,3.29-3.3,5.52-3.3s3.98,1.76,5.52,3.31c1.01,1.01,1.96,1.97,2.91,2.37,1.02.42,2.48.43,3.9.43,2.25,0,4.57.01,6.08,1.52s1.52,3.83,1.52,6.08c0,1.42,0,2.88.43,3.9.39.95,1.35,1.9,2.37,2.91,1.55,1.54,3.3,3.29,3.3,5.52s-1.76,3.98-3.3,5.52c-1.02,1.01-1.97,1.96-2.37,2.91-.42,1.02-.43,2.48-.43,3.9,0,2.25-.01,4.57-1.53,6.08s-3.83,1.52-6.08,1.52c-1.42,0-2.88,0-3.9.43-.95.39-1.9,1.35-2.91,2.37-1.54,1.55-3.29,3.31-5.52,3.31ZM26.04,2c-1.41,0-2.78,1.38-4.11,2.72-1.1,1.11-2.25,2.26-3.56,2.8-1.38.57-3.05.58-4.66.58-1.92,0-3.74.01-4.67.94s-.93,2.75-.94,4.67c0,1.61,0,3.28-.58,4.66-.55,1.32-1.69,2.46-2.8,3.56-1.33,1.33-2.71,2.7-2.71,4.11s1.38,2.78,2.71,4.11c1.11,1.1,2.26,2.25,2.8,3.56.57,1.38.58,3.05.58,4.66,0,1.92.01,3.74.94,4.67s2.75.93,4.67.94c1.61,0,3.28,0,4.66.58,1.32.55,2.46,1.69,3.56,2.8,1.33,1.33,2.7,2.72,4.11,2.72s2.78-1.38,4.11-2.72c1.1-1.11,2.25-2.26,3.56-2.8,1.38-.57,3.05-.58,4.66-.58,1.92,0,3.74-.01,4.67-.94.93-.93.93-2.75.94-4.67,0-1.61,0-3.28.58-4.66.55-1.32,1.69-2.46,2.8-3.56,1.33-1.33,2.72-2.7,2.72-4.11s-1.38-2.78-2.72-4.11c-1.11-1.1-2.26-2.25-2.8-3.56-.57-1.38-.58-3.05-.58-4.66,0-1.92-.01-3.74-.94-4.67-.93-.93-2.75-.93-4.67-.94-1.61,0-3.28-.01-4.66-.58-1.32-.55-2.46-1.69-3.56-2.8-1.33-1.33-2.7-2.72-4.11-2.72Z"/><path class="cls-1" d="M25.47,31.6l-6.34-6.34c-.39-.39-.39-1.02,0-1.41s1.02-.39,1.41,0l4.93,4.93,15.4-15.4c.39-.39,1.02-.39,1.41,0s.39,1.02,0,1.41l-16.81,16.81Z"/></g></svg>