<?xml version="1.0" encoding="UTF-8"?><svg id="Layer_2" xmlns="http://www.w3.org/2000/svg" viewBox="0 0 47.39 47.03"><defs><style>.cls-1{fill:#91887b;}</style></defs><g id="Layer_1-2"><path class="cls-1" d="M11.18,37.22c-.26,0-.52-.1-.71-.29-.21-.21-.32-.5-.29-.8l.63-6.68c.02-.23.12-.45.29-.61L39.64.29c.39-.39,1.02-.39,1.41,0l6.04,6.04c.19.19.29.44.29.71s-.11.52-.29.71l-28.54,28.54c-.16.16-.38.27-.61.29l-6.68.63s-.06,0-.09,0ZM17.85,35.58h0,0ZM12.77,29.99l-.49,5.11,5.11-.48L44.98,7.04l-4.63-4.63L12.77,29.99Z"/><path class="cls-1" d="M2.66,47.03c-.59,0-1.2-.24-1.81-.84-1.88-1.88-.2-3.78,1.02-5.17.89-1.01,1.81-2.05,1.81-3.07s-.53-1.56-1.48-2.36c-.97-.83-2.18-1.86-2.18-3.88s1.21-3.05,2.18-3.88c.94-.81,1.48-1.31,1.48-2.36s-.53-1.56-1.48-2.36C1.23,22.26.02,21.23.02,19.21s1.21-3.06,2.18-3.89c.94-.81,1.48-1.31,1.48-2.37s-.92-2.07-1.81-3.07c-1.23-1.39-2.9-3.29-1.02-5.18,1.88-1.88,3.78-.21,5.17,1.02,1.01.89,2.05,1.81,3.07,1.81s1.56-.53,2.36-1.48c.83-.97,1.86-2.18,3.88-2.18s3.05,1.21,3.88,2.18c.81.94,1.31,1.48,2.36,1.48s1.56-.53,2.36-1.48c.83-.97,1.86-2.18,3.88-2.18s3.06,1.21,3.89,2.18c.36.42.7.82,1.08,1.09.45.32.56.94.24,1.39s-.94.56-1.39.24c-.59-.42-1.03-.93-1.46-1.43-.81-.94-1.31-1.48-2.36-1.48s-1.56.53-2.36,1.48c-.83.97-1.86,2.18-3.88,2.18s-3.05-1.21-3.88-2.18c-.81-.94-1.31-1.48-2.36-1.48s-1.56.53-2.36,1.48c-.83.97-1.86,2.18-3.88,2.18-1.78,0-3.17-1.23-4.4-2.31-1.73-1.52-2.03-1.52-2.43-1.11-.41.41-.42.71,1.11,2.44,1.08,1.23,2.31,2.62,2.31,4.4,0,2.02-1.21,3.06-2.18,3.89-.94.81-1.48,1.31-1.48,2.37s.53,1.56,1.48,2.36c.97.83,2.18,1.86,2.18,3.88s-1.21,3.05-2.18,3.88c-.94.81-1.48,1.31-1.48,2.36s.53,1.56,1.48,2.36c.97.83,2.18,1.86,2.18,3.88,0,1.78-1.23,3.17-2.31,4.4-1.52,1.73-1.52,2.03-1.11,2.43.41.41.71.42,2.44-1.11,1.23-1.08,2.62-2.31,4.4-2.31,2.02,0,3.06,1.21,3.89,2.18.81.94,1.31,1.48,2.36,1.48s1.56-.53,2.36-1.48c.83-.97,1.86-2.18,3.88-2.18s3.05,1.21,3.88,2.18c.81.94,1.31,1.48,2.36,1.48s1.56-.53,2.36-1.48c.83-.97,1.86-2.18,3.88-2.18,1.78,0,3.17,1.23,4.4,2.31,1.73,1.52,2.03,1.52,2.44,1.11.52-.52.57-.58-.66-1.9-.87-.93-2.05-2.21-2.63-4.11-.66-2.17.75-3.47,1.88-4.51.89-.81,1.65-1.52,1.65-2.56s-.53-1.56-1.48-2.36c-.97-.83-2.18-1.86-2.18-3.88s1.21-3.05,2.18-3.88c.94-.81,1.48-1.31,1.48-2.36,0-.55.45-1,1-1s1,.45,1,1c0,2.02-1.21,3.05-2.18,3.88-.94.81-1.48,1.31-1.48,2.36s.53,1.56,1.48,2.36c.97.83,2.18,1.86,2.18,3.88s-1.28,3.1-2.3,4.04c-1.17,1.08-1.59,1.57-1.32,2.45.44,1.46,1.37,2.46,2.18,3.33,1.08,1.16,2.55,2.74.62,4.68-1.88,1.88-3.78.2-5.17-1.02-1.01-.89-2.05-1.81-3.07-1.81s-1.56.53-2.36,1.48c-.83.97-1.86,2.18-3.88,2.18s-3.05-1.21-3.88-2.18c-.81-.94-1.31-1.48-2.36-1.48s-1.56.53-2.36,1.48c-.83.97-1.86,2.18-3.88,2.18s-3.06-1.21-3.89-2.18c-.81-.94-1.31-1.48-2.37-1.48s-2.07.92-3.07,1.81c-.94.83-2.12,1.87-3.36,1.87Z"/><path class="cls-1" d="M19.73,34.7c-.26,0-.51-.1-.71-.29l-6.04-6.04c-.39-.39-.39-1.02,0-1.41s1.02-.39,1.41,0l6.04,6.04c.39.39.39,1.02,0,1.41-.2.2-.45.29-.71.29Z"/></g></svg>