<?xml version="1.0" encoding="UTF-8"?><svg id="Layer_2" xmlns="http://www.w3.org/2000/svg" viewBox="0 0 57.9 49.49"><defs><style>.cls-1{fill:#91887b;}</style></defs><g id="Layer_1-2"><path class="cls-1" d="M28.99,49.49c-11.34,0-21.21-7.67-23.99-18.65-.13-.54.19-1.08.72-1.21.53-.14,1.08.19,1.21.72,2.55,10.09,11.62,17.14,22.05,17.14s19.5-7.05,22.06-17.14c.14-.54.68-.86,1.21-.72.54.14.86.68.72,1.21-2.78,10.98-12.65,18.65-24,18.65Z"/><path class="cls-1" d="M52.01,19.9c-.45,0-.85-.3-.97-.75-2.56-10.1-11.62-17.15-22.06-17.15S9.5,9.05,6.94,19.15c-.14.53-.68.86-1.21.72-.54-.14-.86-.68-.72-1.21C7.79,7.67,17.65,0,28.99,0s21.21,7.67,24,18.66c.13.54-.19,1.08-.72,1.21-.08.02-.17.03-.25.03Z"/><path class="cls-1" d="M5.88,26.34c-.22,0-.45-.07-.63-.22L.37,22.14c-.43-.35-.49-.98-.14-1.41.35-.43.98-.49,1.41-.14l4.25,3.46,4.25-3.46c.43-.35,1.06-.28,1.41.14.35.43.28,1.06-.14,1.41l-4.88,3.98c-.18.15-.41.22-.63.22Z"/><path class="cls-1" d="M56.9,28.59c-.22,0-.45-.07-.63-.22l-4.25-3.46-4.25,3.46c-.43.35-1.06.28-1.41-.14-.35-.43-.28-1.06.14-1.41l4.88-3.98c.37-.3.89-.3,1.26,0l4.88,3.98c.43.35.49.98.14,1.41-.2.24-.49.37-.78.37Z"/><path class="cls-1" d="M37.15,36.18h-16.3c-.55,0-1-.45-1-1v-16.3c0-.55.45-1,1-1h16.3c.55,0,1,.45,1,1v16.3c0,.55-.45,1-1,1ZM21.84,34.18h14.3v-14.3h-14.3v14.3Z"/><path class="cls-1" d="M37.15,19.88c-.26,0-.51-.1-.71-.29-.39-.39-.39-1.02,0-1.41l4.66-4.66c.39-.39,1.02-.39,1.41,0s.39,1.02,0,1.41l-4.66,4.66c-.2.2-.45.29-.71.29Z"/><path class="cls-1" d="M20.84,19.88c-.26,0-.51-.1-.71-.29l-4.66-4.66c-.39-.39-.39-1.02,0-1.41s1.02-.39,1.41,0l4.66,4.66c.39.39.39,1.02,0,1.41-.2.2-.45.29-.71.29Z"/><path class="cls-1" d="M37.15,24.61h-16.3c-.55,0-1-.45-1-1s.45-1,1-1h16.3c.55,0,1,.45,1,1s-.45,1-1,1Z"/></g></svg>