<?xml version="1.0" encoding="UTF-8"?><svg id="Layer_2" xmlns="http://www.w3.org/2000/svg" viewBox="0 0 49.2 49.2"><defs><style>.cls-1{fill:#91887b;}</style></defs><g id="Layer_1-2"><path class="cls-1" d="M24.6,49.2C11.04,49.2,0,38.17,0,24.6S11.04,0,24.6,0s24.6,11.04,24.6,24.6-11.04,24.6-24.6,24.6ZM24.6,2C12.14,2,2,12.14,2,24.6s10.14,22.6,22.6,22.6,22.6-10.14,22.6-22.6S37.06,2,24.6,2Z"/><path class="cls-1" d="M24.6,49.2c-7.79,0-13.9-10.81-13.9-24.6S16.81,0,24.6,0s13.9,10.81,13.9,24.6-6.11,24.6-13.9,24.6ZM24.6,2c-6.56,0-11.9,10.14-11.9,22.6s5.34,22.6,11.9,22.6,11.9-10.14,11.9-22.6S31.16,2,24.6,2Z"/><path class="cls-1" d="M24.6,49.2c-.55,0-1-.45-1-1V1c0-.55.45-1,1-1s1,.45,1,1v47.2c0,.55-.45,1-1,1Z"/></g></svg>