<?xml version="1.0" encoding="UTF-8"?><svg id="Layer_2" xmlns="http://www.w3.org/2000/svg" viewBox="0 0 49.2 49.2"><defs><style>.cls-1{fill:#91887b;}</style></defs><g id="Layer_1-2"><path class="cls-1" d="M24.6,49.2C11.04,49.2,0,38.17,0,24.6v-14.49c0-.55.45-1,1-1,4.47,0,8.11-3.64,8.11-8.11,0-.55.45-1,1-1h28.99c.55,0,1,.45,1,1,0,4.47,3.64,8.11,8.11,8.11.55,0,1,.45,1,1v14.49c0,13.56-11.04,24.6-24.6,24.6ZM2,11.06v13.54c0,12.46,10.14,22.6,22.6,22.6s22.6-10.14,22.6-22.6v-13.54c-4.78-.47-8.58-4.28-9.06-9.06H11.06c-.47,4.78-4.28,8.58-9.06,9.06Z"/><path class="cls-1" d="M24.6,38.53h0c-.42,0-.79-.26-.94-.65l-2.26-6.11c-.85-2.29-2.64-4.08-4.93-4.93l-6.11-2.26c-.39-.15-.65-.52-.65-.94s.26-.79.65-.94l6.11-2.26c2.29-.85,4.08-2.64,4.93-4.93l2.26-6.11c.14-.39.52-.65.94-.65s.79.26.94.65l2.26,6.11c.85,2.29,2.64,4.08,4.93,4.93l6.11,2.26c.39.15.65.52.65.94s-.26.79-.65.94l-6.11,2.26c-2.28.85-4.08,2.64-4.93,4.93l-2.26,6.11c-.14.39-.52.65-.94.65ZM13.6,23.65l3.57,1.32c2.83,1.05,5.06,3.27,6.11,6.11l1.32,3.57,1.32-3.57c1.05-2.83,3.28-5.06,6.11-6.11l3.57-1.32-3.57-1.32c-2.83-1.05-5.06-3.27-6.11-6.11l-1.32-3.57-1.32,3.57c-1.05,2.83-3.28,5.06-6.11,6.11l-3.57,1.32Z"/></g></svg>