<?xml version="1.0" encoding="UTF-8"?><svg id="Layer_2" xmlns="http://www.w3.org/2000/svg" viewBox="0 0 60.22 43.27"><defs><style>.cls-1{fill:#91887b;}</style></defs><g id="Layer_1-2"><g id="ibke2S.tif"><path class="cls-1" d="M60.22,16.19v.58c-.08.1-.22.31-.33.42l-4.54,4.55c-.41.41-1.03.41-1.43,0l-1.21-1.2-5.61,5.6.73.85c.77.9,1.01,2.04.71,3.25-.24.96-1.06,1.8-2.07,2.29.66,1.42.49,2.98-.56,4.09-.96,1.01-2.45,1.35-3.86.88-.43,1.99-2.23,3.16-4.18,2.86-.25,1.16-.99,2.09-1.9,2.53-1.1.53-2.45.51-3.34-.22-.68-.56-1.24-1.19-1.88-1.79l-1.13,1.12c-1.37,1.37-3.54,1.29-4.86-.09-.53-.55-.86-1.15-1.03-1.95-2,.35-3.81-1-4.21-3.02-2.19.35-4.15-1.3-4.24-3.55-1.05-.04-1.88-.45-2.58-1.16-1.35-1.37-1.35-3.46,0-4.82l1.2-1.2-5.93-6.11-1.74,1.7c-.35.34-.95.34-1.3,0L.32,17.2c-.42-.42-.43-1,0-1.44L15.78.31c.43-.43,1.02-.41,1.43,0l4.55,4.54c.42.42.42,1,.02,1.42l-.82.86,1.66,1.65h15.51s1.4-1.4,1.4-1.4l-1.09-1.12c-.35-.36-.43-.95-.04-1.35L43,.32c.4-.4,1-.43,1.43,0l15.46,15.45c.13.13.26.34.33.43ZM16.5,2.26L2.26,16.48l3.32,3.32,14.23-14.22-3.32-3.32ZM43.72,2.26l-3.32,3.32,14.23,14.22,3.32-3.32-14.23-14.22ZM35.37,28.89l6.84,6.5c.72.68,1.79.6,2.4-.14.57-.68.47-1.64-.23-2.29l-6.57-6.14c-.43-.4-.37-1.04.02-1.39.36-.32.91-.31,1.31.06l5.72,5.3c.55.39,1.45-.25,1.7-.68.31-.54.32-1.35-.13-1.85s-.84-1-1.33-1.48l-10.53-10.48-5.19.2-2.23,2.19c-1.53,1.5-3.65,2.15-5.77,1.89-1.13-.14-1.98-.9-2.3-1.83-.38-1.13.01-2.14.81-2.95l4.94-5.08-2.62-.06c-.19,0-.56-.17-.7-.31l-1.91-1.9-10.32,10.3,5.93,6.11,1.01-.96c1.34-1.42,3.48-1.39,4.86-.06.97.94,1.34,2.19,1.02,3.52,1.7.47,2.85,1.85,2.9,3.55,2.18,0,3.96,2.12,3.54,4.23,1.89.4,3.14,2.03,3.03,3.89,1.3,1.04,2.4,3.35,3.93,1.88.32-.31.8-1.17.35-1.64l-5.28-5.61c-.38-.4-.31-1.01.07-1.34s.93-.33,1.32.07l5.44,5.7c.67.7,1.88.44,2.39-.16.58-.68.58-1.71-.11-2.37l-5.59-5.31c-.4-.38-.38-.95-.08-1.3.32-.38.95-.47,1.35-.09ZM25.81,17.34l2.75-2.69,6.28-.27c.31-.01.66.2.9.43l10.04,9.99,5.59-5.58-10.52-10.51-1.57,1.63c-.2.17-.54.34-.83.34h-10.93s-6.48,6.64-6.48,6.64c-.2.2-.25.68-.15.92.39.92,3.32.68,4.92-.88ZM16.35,31l3.54-3.54c.65-.66.56-1.59-.07-2.21s-1.56-.72-2.21-.07l-3.58,3.57c-.66.66-.59,1.59.05,2.23s1.57.72,2.27.02ZM19.91,34.67l2.75-2.75c.65-.65.53-1.56-.06-2.18s-1.56-.77-2.22-.11l-2.78,2.78c-.62.62-.49,1.54.06,2.13.6.64,1.55.81,2.25.12ZM24.19,37.61c.66-.72,1.33-1.39,2.02-2.02s.64-1.63-.03-2.27c-.62-.6-1.54-.71-2.19-.06l-2.18,2.17c-.64.64-.53,1.57.07,2.18.66.67,1.62.74,2.3,0ZM28.12,40.81c.47-.38.94-.85,1.28-1.3.5-.65.29-1.47-.22-1.97-.44-.44-1.25-.8-1.86-.33-.51.4-1.01.93-1.45,1.42-.52.59-.28,1.43.22,1.94.52.54,1.36.78,2.04.23Z"/></g></g></svg>