<?xml version="1.0" encoding="UTF-8"?><svg id="Layer_2" xmlns="http://www.w3.org/2000/svg" viewBox="0 0 49.49 57.9"><defs><style>.cls-1{fill:#91887b;}</style></defs><g id="Layer_1-2"><path class="cls-1" d="M30.59,52.92c-.45,0-.85-.3-.97-.75-.13-.54.19-1.08.72-1.21,10.09-2.55,17.14-11.62,17.14-22.05s-7.05-19.5-17.14-22.06c-.54-.14-.86-.68-.72-1.21.14-.54.68-.86,1.21-.72,10.98,2.78,18.65,12.65,18.65,24s-7.67,21.21-18.65,23.98c-.08.02-.17.03-.25.03Z"/><path class="cls-1" d="M18.91,52.92c-.08,0-.16,0-.25-.03C7.67,50.11,0,40.25,0,28.91S7.67,7.69,18.66,4.91c.53-.14,1.08.19,1.21.72.13.54-.19,1.08-.72,1.21C9.05,9.41,2,18.48,2,28.91s7.05,19.49,17.15,22.05c.54.14.86.68.72,1.21-.12.45-.52.75-.97.75Z"/><path class="cls-1" d="M21.36,57.9c-.22,0-.45-.07-.63-.22-.43-.35-.49-.98-.14-1.41l3.46-4.25-3.46-4.25c-.35-.43-.28-1.06.14-1.41.43-.35,1.06-.28,1.41.14l3.98,4.88c.3.37.3.9,0,1.26l-3.98,4.88c-.2.24-.49.37-.78.37Z"/><path class="cls-1" d="M27.59,11.77c-.29,0-.58-.13-.78-.37l-3.98-4.88c-.3-.37-.3-.9,0-1.26L26.81.37c.35-.43.98-.49,1.41-.14.43.35.49.98.14,1.41l-3.46,4.25,3.46,4.25c.35.43.28,1.06-.14,1.41-.19.15-.41.22-.63.22Z"/><path class="cls-1" d="M27.8,42.24h-6.02c-.51,0-.93-.38-.99-.88l-.26-2.16-1.71,1.34c-.4.31-.97.28-1.32-.08l-4.26-4.26c-.36-.36-.39-.93-.08-1.32l1.34-1.71-2.16-.26c-.5-.06-.88-.49-.88-.99v-6.02c0-.51.38-.93.88-.99l2.16-.26-1.34-1.71c-.31-.4-.28-.97.08-1.32l4.26-4.26c.36-.36.92-.39,1.32-.08l1.71,1.34.26-2.16c.06-.5.49-.88.99-.88h6.02c.51,0,.93.38.99.88l.26,2.16,1.71-1.34c.4-.31.97-.28,1.32.08l4.26,4.26c.36.36.39.93.08,1.32l-1.34,1.71,2.16.26c.5.06.88.49.88.99v6.02c0,.51-.38.93-.88.99l-2.16.26,1.34,1.71c.31.4.28.97-.08,1.32l-4.26,4.26c-.36.36-.92.39-1.32.08l-1.71-1.34-.26,2.16c-.06.5-.49.88-.99.88ZM22.66,40.24h4.25l.37-3.04c.04-.36.28-.67.61-.8.33-.14.71-.09,1,.14l2.41,1.89,3.01-3.01-1.89-2.41c-.22-.28-.27-.67-.14-1s.45-.57.8-.61l3.04-.37v-4.25l-3.04-.37c-.36-.04-.67-.28-.8-.61s-.09-.72.14-1l1.89-2.41-3.01-3.01-2.41,1.89c-.29.22-.67.28-1,.14-.33-.14-.57-.44-.61-.8l-.37-3.04h-4.25l-.37,3.04c-.04.36-.28.67-.61.8-.33.14-.71.08-1-.14l-2.41-1.89-3.01,3.01,1.89,2.41c.22.28.27.67.14,1s-.45.57-.8.61l-3.04.37v4.25l3.04.37c.36.04.67.28.8.61s.09.72-.14,1l-1.89,2.41,3.01,3.01,2.41-1.89c.29-.22.67-.28,1-.14.33.14.57.45.61.8l.37,3.04Z"/><path class="cls-1" d="M24.78,34.48c-3.07,0-5.58-2.5-5.58-5.58s2.5-5.58,5.58-5.58,5.58,2.5,5.58,5.58-2.5,5.58-5.58,5.58ZM24.78,25.33c-1.97,0-3.58,1.6-3.58,3.58s1.6,3.58,3.58,3.58,3.58-1.6,3.58-3.58-1.6-3.58-3.58-3.58Z"/></g></svg>