<?xml version="1.0" encoding="UTF-8"?><svg id="Layer_2" xmlns="http://www.w3.org/2000/svg" viewBox="0 0 51.97 49.52"><defs><style>.cls-1{fill:#91887b;}</style></defs><g id="Layer_1-2"><path class="cls-1" d="M25.98,30.02c-4.65,0-8.43-3.78-8.43-8.43s3.78-8.43,8.43-8.43,8.43,3.78,8.43,8.43-3.78,8.43-8.43,8.43ZM25.98,15.15c-3.55,0-6.43,2.89-6.43,6.43s2.89,6.43,6.43,6.43,6.43-2.89,6.43-6.43-2.89-6.43-6.43-6.43Z"/><path class="cls-1" d="M37.05,49.52H14.92v-11.63c0-5.44,4.43-9.87,9.87-9.87h2.38c5.44,0,9.87,4.43,9.87,9.87v11.63ZM16.92,47.52h18.12v-9.63c0-4.34-3.53-7.87-7.87-7.87h-2.38c-4.34,0-7.87,3.53-7.87,7.87v9.63Z"/><path class="cls-1" d="M11.06,16.87c-4.65,0-8.43-3.78-8.43-8.43S6.41,0,11.06,0s8.43,3.78,8.43,8.43-3.78,8.43-8.43,8.43ZM11.06,2c-3.55,0-6.43,2.89-6.43,6.43s2.89,6.43,6.43,6.43,6.43-2.89,6.43-6.43-2.89-6.43-6.43-6.43Z"/><path class="cls-1" d="M16.29,36.37H0v-11.63c0-5.44,4.43-9.87,9.87-9.87h2.38c2.91,0,5.65,1.27,7.53,3.5.36.42.3,1.05-.12,1.41-.42.36-1.05.3-1.41-.12-1.49-1.77-3.68-2.79-6-2.79h-2.38c-4.34,0-7.87,3.53-7.87,7.87v9.63h14.29c.55,0,1,.45,1,1s-.45,1-1,1Z"/><path class="cls-1" d="M40.9,16.87c-4.65,0-8.43-3.78-8.43-8.43S36.25,0,40.9,0s8.43,3.78,8.43,8.43-3.78,8.43-8.43,8.43ZM40.9,2c-3.55,0-6.43,2.89-6.43,6.43s2.89,6.43,6.43,6.43,6.43-2.89,6.43-6.43-2.89-6.43-6.43-6.43Z"/><path class="cls-1" d="M51.97,36.37h-16.3c-.55,0-1-.45-1-1s.45-1,1-1h14.3v-9.63c0-4.34-3.54-7.87-7.88-7.87h-2.38c-2.31,0-4.5,1.01-6,2.78-.36.42-.99.47-1.41.12-.42-.36-.47-.99-.12-1.41,1.88-2.21,4.62-3.48,7.52-3.48h2.38c5.45,0,9.88,4.43,9.88,9.87v11.63Z"/></g></svg>