<?xml version="1.0" encoding="UTF-8"?><svg id="Layer_2" xmlns="http://www.w3.org/2000/svg" viewBox="0 0 52.32 52.32"><defs><style>.cls-1{fill:#91887b;}</style></defs><g id="Layer_1-2"><path class="cls-1" d="M41.27,52.32H11.05c-.55,0-1-.45-1-1,0-4.99-4.06-9.05-9.05-9.05-.55,0-1-.45-1-1V11.05c0-.55.45-1,1-1,4.99,0,9.05-4.06,9.05-9.05,0-.55.45-1,1-1h30.22c.55,0,1,.45,1,1,0,4.99,4.06,9.05,9.05,9.05.55,0,1,.45,1,1v30.22c0,.55-.45,1-1,1-4.99,0-9.05,4.06-9.05,9.05,0,.55-.45,1-1,1ZM12,50.32h28.31c.48-5.29,4.71-9.52,10-10V12c-5.29-.48-9.52-4.71-10-10H12c-.48,5.29-4.71,9.52-10,10v28.31c5.29.48,9.52,4.71,10,10Z"/><path class="cls-1" d="M26.16,45.39c-.47,0-.87-.32-.98-.78l-2.37-10.48-9.09,5.74c-.4.25-.91.19-1.24-.14-.33-.33-.39-.85-.14-1.24l5.74-9.09-10.48-2.37c-.46-.1-.78-.51-.78-.98s.32-.87.78-.98l10.48-2.37-5.74-9.09c-.25-.4-.19-.91.14-1.24.33-.33.84-.39,1.24-.14l9.09,5.74,2.37-10.48c.1-.46.51-.78.98-.78s.87.32.98.78l2.37,10.48,9.09-5.74c.4-.25.91-.19,1.24.14.33.33.39.85.14,1.24l-5.74,9.09,10.48,2.37c.46.1.78.51.78.98s-.32.87-.78.98l-10.48,2.37,5.74,9.09c.25.4.19.91-.14,1.24-.33.33-.85.39-1.24.14l-9.09-5.74-2.37,10.48c-.1.46-.51.78-.98.78ZM23.48,31.53c.13,0,.26.03.38.08.3.12.52.39.59.7l1.7,7.54,1.7-7.54c.07-.32.29-.58.59-.7.3-.12.64-.09.92.08l6.54,4.13-4.13-6.54c-.17-.27-.2-.62-.08-.92.12-.3.39-.52.7-.59l7.55-1.7-7.55-1.7c-.32-.07-.58-.29-.7-.59-.12-.3-.09-.64.08-.92l4.13-6.54-6.54,4.13c-.27.17-.62.2-.92.08-.3-.12-.52-.39-.59-.7l-1.7-7.54-1.7,7.54c-.07.32-.29.58-.59.7-.3.12-.64.09-.92-.08l-6.54-4.13,4.13,6.54c.17.27.2.62.08.92-.12.3-.39.52-.7.59l-7.55,1.7,7.55,1.7c.32.07.58.29.7.59.12.3.09.64-.08.92l-4.13,6.54,6.54-4.13c.16-.1.35-.15.53-.15Z"/></g></svg>