<?xml version="1.0" encoding="UTF-8"?><svg id="Layer_2" xmlns="http://www.w3.org/2000/svg" viewBox="0 0 53.29 53.47"><defs><style>.cls-1{fill:#91887b;}</style></defs><g id="Layer_1-2"><path class="cls-1" d="M12.28,53.47H1.88c-.55,0-1-.45-1-1v-18.16c0-.55.45-1,1-1h10.4c.55,0,1,.45,1,1v18.16c0,.55-.45,1-1,1ZM2.88,51.47h8.4v-16.16H2.88v16.16Z"/><path class="cls-1" d="M31.93,53.47h-10.4c-.55,0-1-.45-1-1v-27.5c0-.55.45-1,1-1h10.4c.55,0,1,.45,1,1v27.5c0,.55-.45,1-1,1ZM22.54,51.47h8.4v-25.5h-8.4v25.5Z"/><path class="cls-1" d="M51.59,53.47h-10.4c-.55,0-1-.45-1-1V16.16c0-.55.45-1,1-1h10.4c.55,0,1,.45,1,1v36.31c0,.55-.45,1-1,1ZM42.19,51.47h8.4V17.16h-8.4v34.31Z"/><path class="cls-1" d="M1,29.15c-.36,0-.71-.19-.88-.53-.26-.49-.07-1.09.42-1.35L51.83.12c.49-.26,1.09-.07,1.35.42.26.49.07,1.09-.42,1.35L1.47,29.03c-.15.08-.31.12-.47.12Z"/><path class="cls-1" d="M48.06,10.46c-.15,0-.3-.03-.45-.11-.49-.25-.69-.85-.45-1.34l3.51-7.01h-9.49c-.55,0-1-.45-1-1S40.64,0,41.19,0h11.1c.35,0,.67.18.85.47.18.29.2.66.04.97l-4.23,8.46c-.18.35-.53.55-.9.55Z"/></g></svg>